<svg xmlns="http://www.w3.org/2000/svg" viewBox="0 0 512 512" width="512" height="512">
  <defs>
    <filter id="glod" x="-20%" y="-20%" width="140%" height="140%">
      <feGaussianBlur stdDeviation="6" />
    </filter>
  </defs>
  <rect width="512" height="512" fill="#12110f"/>
  <g fill="none" stroke-linecap="round" stroke-linejoin="round">
    <path d="M256.0,238.4 L256.0,52.0 M264.8,240.7 L358.0,79.3 M271.3,247.2 L432.7,154.0 M273.6,256.0 L460.0,256.0 M271.3,264.8 L432.7,358.0 M264.8,271.3 L358.0,432.7 M256.0,273.6 L256.0,460.0 M247.2,271.3 L154.0,432.7 M240.7,264.8 L79.3,358.0 M238.4,256.0 L52.0,256.0 M240.7,247.2 L79.3,154.0 M247.2,240.7 L154.0,79.3 M256.0,214.0 Q265.8,219.5 277.0,219.6 M277.0,219.6 Q282.7,229.3 292.4,235.0 M292.4,235.0 Q292.5,246.2 298.0,256.0 M298.0,256.0 Q292.5,265.8 292.4,277.0 M292.4,277.0 Q282.7,282.7 277.0,292.4 M277.0,292.4 Q265.8,292.5 256.0,298.0 M256.0,298.0 Q246.2,292.5 235.0,292.4 M235.0,292.4 Q229.3,282.7 219.6,277.0 M219.6,277.0 Q219.5,265.8 214.0,256.0 M214.0,256.0 Q219.5,246.2 219.6,235.0 M219.6,235.0 Q229.3,229.3 235.0,219.6 M235.0,219.6 Q246.2,219.5 256.0,214.0 M256.0,174.0 Q275.1,184.7 297.0,185.0 M297.0,185.0 Q308.2,203.8 327.0,215.0 M327.0,215.0 Q327.3,236.9 338.0,256.0 M338.0,256.0 Q327.3,275.1 327.0,297.0 M327.0,297.0 Q308.2,308.2 297.0,327.0 M297.0,327.0 Q275.1,327.3 256.0,338.0 M256.0,338.0 Q236.9,327.3 215.0,327.0 M215.0,327.0 Q203.8,308.2 185.0,297.0 M185.0,297.0 Q184.7,275.1 174.0,256.0 M174.0,256.0 Q184.7,236.9 185.0,215.0 M185.0,215.0 Q203.8,203.8 215.0,185.0 M215.0,185.0 Q236.9,184.7 256.0,174.0 M256.0,132.0 Q284.9,148.2 318.0,148.6 M318.0,148.6 Q334.9,177.1 363.4,194.0 M363.4,194.0 Q363.8,227.1 380.0,256.0 M380.0,256.0 Q363.8,284.9 363.4,318.0 M363.4,318.0 Q334.9,334.9 318.0,363.4 M318.0,363.4 Q284.9,363.8 256.0,380.0 M256.0,380.0 Q227.1,363.8 194.0,363.4 M194.0,363.4 Q177.1,334.9 148.6,318.0 M148.6,318.0 Q148.2,284.9 132.0,256.0 M132.0,256.0 Q148.2,227.1 148.6,194.0 M148.6,194.0 Q177.1,177.1 194.0,148.6 M194.0,148.6 Q227.1,148.2 256.0,132.0 M256.0,90.0 Q294.7,111.7 339.0,112.2 M339.0,112.2 Q361.6,150.4 399.8,173.0 M399.8,173.0 Q400.3,217.3 422.0,256.0 M422.0,256.0 Q400.3,294.7 399.8,339.0 M399.8,339.0 Q361.6,361.6 339.0,399.8 M339.0,399.8 Q294.7,400.3 256.0,422.0 M256.0,422.0 Q217.3,400.3 173.0,399.8 M173.0,399.8 Q150.4,361.6 112.2,339.0 M112.2,339.0 Q111.7,294.7 90.0,256.0 M90.0,256.0 Q111.7,217.3 112.2,173.0 M112.2,173.0 Q150.4,150.4 173.0,112.2 M173.0,112.2 Q217.3,111.7 256.0,90.0 M256.0,52.0 Q303.5,78.7 358.0,79.3 M358.0,79.3 Q385.8,126.2 432.7,154.0 M432.7,154.0 Q433.3,208.5 460.0,256.0 M460.0,256.0 Q433.3,303.5 432.7,358.0 M432.7,358.0 Q385.8,385.8 358.0,432.7 M358.0,432.7 Q303.5,433.3 256.0,460.0 M256.0,460.0 Q208.5,433.3 154.0,432.7 M154.0,432.7 Q126.2,385.8 79.3,358.0 M79.3,358.0 Q78.7,303.5 52.0,256.0 M52.0,256.0 Q78.7,208.5 79.3,154.0 M79.3,154.0 Q126.2,126.2 154.0,79.3 M154.0,79.3 Q208.5,78.7 256.0,52.0" stroke="#ffd98a" stroke-width="7" opacity="0.35" filter="url(#glod)"/>
    <path d="M256.0,238.4 L256.0,52.0 M264.8,240.7 L358.0,79.3 M271.3,247.2 L432.7,154.0 M273.6,256.0 L460.0,256.0 M271.3,264.8 L432.7,358.0 M264.8,271.3 L358.0,432.7 M256.0,273.6 L256.0,460.0 M247.2,271.3 L154.0,432.7 M240.7,264.8 L79.3,358.0 M238.4,256.0 L52.0,256.0 M240.7,247.2 L79.3,154.0 M247.2,240.7 L154.0,79.3 M256.0,214.0 Q265.8,219.5 277.0,219.6 M277.0,219.6 Q282.7,229.3 292.4,235.0 M292.4,235.0 Q292.5,246.2 298.0,256.0 M298.0,256.0 Q292.5,265.8 292.4,277.0 M292.4,277.0 Q282.7,282.7 277.0,292.4 M277.0,292.4 Q265.8,292.5 256.0,298.0 M256.0,298.0 Q246.2,292.5 235.0,292.4 M235.0,292.4 Q229.3,282.7 219.6,277.0 M219.6,277.0 Q219.5,265.8 214.0,256.0 M214.0,256.0 Q219.5,246.2 219.6,235.0 M219.6,235.0 Q229.3,229.3 235.0,219.6 M235.0,219.6 Q246.2,219.5 256.0,214.0 M256.0,174.0 Q275.1,184.7 297.0,185.0 M297.0,185.0 Q308.2,203.8 327.0,215.0 M327.0,215.0 Q327.3,236.9 338.0,256.0 M338.0,256.0 Q327.3,275.1 327.0,297.0 M327.0,297.0 Q308.2,308.2 297.0,327.0 M297.0,327.0 Q275.1,327.3 256.0,338.0 M256.0,338.0 Q236.9,327.3 215.0,327.0 M215.0,327.0 Q203.8,308.2 185.0,297.0 M185.0,297.0 Q184.7,275.1 174.0,256.0 M174.0,256.0 Q184.7,236.9 185.0,215.0 M185.0,215.0 Q203.8,203.8 215.0,185.0 M215.0,185.0 Q236.9,184.7 256.0,174.0 M256.0,132.0 Q284.9,148.2 318.0,148.6 M318.0,148.6 Q334.9,177.1 363.4,194.0 M363.4,194.0 Q363.8,227.1 380.0,256.0 M380.0,256.0 Q363.8,284.9 363.4,318.0 M363.4,318.0 Q334.9,334.9 318.0,363.4 M318.0,363.4 Q284.9,363.8 256.0,380.0 M256.0,380.0 Q227.1,363.8 194.0,363.4 M194.0,363.4 Q177.1,334.9 148.6,318.0 M148.6,318.0 Q148.2,284.9 132.0,256.0 M132.0,256.0 Q148.2,227.1 148.6,194.0 M148.6,194.0 Q177.1,177.1 194.0,148.6 M194.0,148.6 Q227.1,148.2 256.0,132.0 M256.0,90.0 Q294.7,111.7 339.0,112.2 M339.0,112.2 Q361.6,150.4 399.8,173.0 M399.8,173.0 Q400.3,217.3 422.0,256.0 M422.0,256.0 Q400.3,294.7 399.8,339.0 M399.8,339.0 Q361.6,361.6 339.0,399.8 M339.0,399.8 Q294.7,400.3 256.0,422.0 M256.0,422.0 Q217.3,400.3 173.0,399.8 M173.0,399.8 Q150.4,361.6 112.2,339.0 M112.2,339.0 Q111.7,294.7 90.0,256.0 M90.0,256.0 Q111.7,217.3 112.2,173.0 M112.2,173.0 Q150.4,150.4 173.0,112.2 M173.0,112.2 Q217.3,111.7 256.0,90.0 M256.0,52.0 Q303.5,78.7 358.0,79.3 M358.0,79.3 Q385.8,126.2 432.7,154.0 M432.7,154.0 Q433.3,208.5 460.0,256.0 M460.0,256.0 Q433.3,303.5 432.7,358.0 M432.7,358.0 Q385.8,385.8 358.0,432.7 M358.0,432.7 Q303.5,433.3 256.0,460.0 M256.0,460.0 Q208.5,433.3 154.0,432.7 M154.0,432.7 Q126.2,385.8 79.3,358.0 M79.3,358.0 Q78.7,303.5 52.0,256.0 M52.0,256.0 Q78.7,208.5 79.3,154.0 M79.3,154.0 Q126.2,126.2 154.0,79.3 M154.0,79.3 Q208.5,78.7 256.0,52.0" stroke="#f0b64c" stroke-width="3.2"/>
    <circle cx="256.0" cy="256.0" r="5.5" fill="#ffd98a" stroke="none"/>
  </g>
</svg>
